<?xml version="1.0" standalone="no"?><!DOCTYPE svg PUBLIC "-//W3C//DTD SVG 1.1//EN" "http://www.w3.org/Graphics/SVG/1.1/DTD/svg11.dtd"><svg class="icon" height="512" viewBox="0 0 1024 1024" version="1.1" xmlns="http://www.w3.org/2000/svg"><path d="M790.6816 105.7792h-34.372267a25.6 25.6 0 1 0 0 51.2h34.372267A83.7632 83.7632 0 0 1 874.325333 240.64v567.944533a83.7632 83.7632 0 0 1-83.6608 83.677867H236.9536a83.797333 83.797333 0 0 1-83.677867-83.677867V240.64c0-46.1312 37.546667-83.6608 83.677867-83.6608h34.372267a25.6 25.6 0 1 0 0-51.2h-34.372267c-74.376533 0-134.877867 60.501333-134.877867 134.8608v567.944533c0 74.376533 60.501333 134.877867 134.877867 134.877867h553.728c74.359467 0 134.8608-60.501333 134.8608-134.877867V240.64c0-74.359467-60.501333-134.8608-134.8608-134.8608" fill="#333333" /><path d="M434.8928 173.312h155.733333a46.933333 46.933333 0 1 0 0-93.866667h-155.733333a46.933333 46.933333 0 1 0 0 93.866667M286.6176 346.112a25.6 25.6 0 0 0 25.6 25.6h394.666667a25.6 25.6 0 1 0 0-51.2H312.2176a25.6 25.6 0 0 0-25.6 25.6M706.884267 478.378667H312.2176a25.6 25.6 0 1 0 0 51.2h394.666667a25.6 25.6 0 1 0 0-51.2M706.884267 636.245333H312.2176a25.6 25.6 0 1 0 0 51.2h394.666667a25.6 25.6 0 1 0 0-51.2" fill="#333333" /></svg>